<svg width="32" height="33" viewBox="0 0 32 33" fill="none" xmlns="http://www.w3.org/2000/svg">
<path d="M26.6667 2.98438H5.33341C3.86675 2.98438 2.66675 4.18437 2.66675 5.65104V21.651C2.66675 23.1177 3.86675 24.3177 5.33341 24.3177H10.6667V28.3177C10.6667 29.1177 11.2001 29.651 12.0001 29.651H12.6667C12.9334 29.651 13.3334 29.5177 13.6001 29.251L18.5334 24.3177H26.6667C28.1334 24.3177 29.3334 23.1177 29.3334 21.651V5.65104C29.3334 4.18437 28.1334 2.98438 26.6667 2.98438ZM14.6667 17.651H9.33341V12.051L11.0667 8.31771H13.7334L11.8667 12.3177H14.6667V17.651ZM22.6667 17.651H17.3334V12.051L19.0667 8.31771H21.7334L19.8667 12.3177H22.6667V17.651Z" fill="#A2E492"/>
</svg>
