<svg width="32" height="33" viewBox="0 0 32 33" fill="none" xmlns="http://www.w3.org/2000/svg">
<path d="M16 15.6776C15.04 15.6776 14.4 16.3176 14.4 17.2776C14.4 17.9176 14.88 18.3976 15.36 18.5576L14.88 20.7976H16.96L16.48 18.5576C17.12 18.3976 17.44 17.9176 17.44 17.2776C17.6 16.3176 16.96 15.6776 16 15.6776ZM16.16 8.79758C15.04 8.79758 13.92 9.59758 13.92 10.7176V13.1176H18.24V10.7176C18.08 9.59758 17.28 8.79758 16.16 8.79758ZM16 3.51758L4.80005 8.31758V13.1176C4.96005 20.1576 9.44005 26.3976 16 28.9576C22.56 26.3976 27.04 20.1576 27.2 13.1176V8.31758L16 3.51758ZM22.4 21.1176C22.4 22.0776 21.76 22.7176 20.8 22.7176H11.2C10.24 22.7176 9.60005 22.0776 9.60005 21.1176V14.7176C9.60005 13.7576 10.24 13.1176 11.2 13.1176H11.68V10.7176C11.84 8.47758 13.76 6.71758 16 6.71758C18.24 6.71758 20.16 8.47758 20.32 10.7176V13.1176H20.8C21.76 13.1176 22.4 13.7576 22.4 14.7176V21.1176Z" fill="#A2E492"/>
</svg>
