<svg width="18" height="21" viewBox="0 0 18 21" fill="none" xmlns="http://www.w3.org/2000/svg">
<path d="M18 2.78809H4C3.46957 2.78809 2.96086 2.9988 2.58579 3.37387C2.21071 3.74894 2 4.25765 2 4.78809C2 5.31852 2.21071 5.82723 2.58579 6.2023C2.96086 6.57737 3.46957 6.78809 4 6.78809H18V19.7881C18 20.0533 17.8946 20.3077 17.7071 20.4952C17.5196 20.6827 17.2652 20.7881 17 20.7881H4C2.93913 20.7881 1.92172 20.3667 1.17157 19.6165C0.421427 18.8664 0 17.849 0 16.7881V4.78809C0 3.72722 0.421427 2.7098 1.17157 1.95966C1.92172 1.20951 2.93913 0.788086 4 0.788086H17C17.2652 0.788086 17.5196 0.893443 17.7071 1.08098C17.8946 1.26852 18 1.52287 18 1.78809V2.78809ZM17 5.78809H4C3.73478 5.78809 3.48043 5.68273 3.29289 5.49519C3.10536 5.30766 3 5.0533 3 4.78809C3 4.52287 3.10536 4.26852 3.29289 4.08098C3.48043 3.89344 3.73478 3.78809 4 3.78809H17V5.78809Z" fill="#CEB5F2"/>
</svg>
